<svg xmlns="http://www.w3.org/2000/svg" viewBox="0 0 960 600" width="960" height="600" role="img" aria-label="Reverse osmosis, drawn from its published figures"><title>Reverse osmosis</title><defs><linearGradient id="sky" x1="0" y1="0" x2="0" y2="1">
      <stop offset="0" stop-color="hsl(204 62% 82%)"/><stop offset="1" stop-color="hsl(34 64% 95%)"/></linearGradient><radialGradient id="sun"><stop offset="0" stop-color="hsl(34 96% 80%)" stop-opacity=".85"/>
          <stop offset="1" stop-color="hsl(34 96% 80%)" stop-opacity="0"/></radialGradient><linearGradient id="sea" x1="0" y1="0" x2="0" y2="1">
      <stop offset="0" stop-color="hsl(200 46% 68%)"/><stop offset="1" stop-color="hsl(204 62% 40%)"/></linearGradient><clipPath id="tk"><rect x="710" y="230" width="120" height="240" rx="16"/></clipPath></defs><rect width="960" height="600" fill="url(#sky)"/><circle cx="636.7437318974933" cy="110.07483133094517" r="230" fill="url(#sun)"/><rect x="0" y="212" width="960" height="388" fill="url(#sea)"/><rect x="456" y="218" width="70" height="2" rx="1" fill="hsl(0 0% 100% / 0.10)"/><rect x="316" y="232" width="135" height="2" rx="1" fill="hsl(0 0% 100% / 0.16)"/><rect x="266" y="238" width="48" height="2" rx="1" fill="hsl(0 0% 100% / 0.22)"/><rect x="223" y="249" width="158" height="2" rx="1" fill="hsl(0 0% 100% / 0.07)"/><rect x="547" y="276" width="169" height="2" rx="1" fill="hsl(0 0% 100% / 0.13)"/><rect x="267" y="297" width="213" height="2" rx="1" fill="hsl(0 0% 100% / 0.20)"/><rect x="325" y="267" width="86" height="2" rx="1" fill="hsl(0 0% 100% / 0.19)"/><rect x="580" y="297" width="207" height="2" rx="1" fill="hsl(0 0% 100% / 0.13)"/><rect x="276" y="296" width="180" height="2" rx="1" fill="hsl(0 0% 100% / 0.15)"/><rect x="31" y="329" width="74" height="2" rx="1" fill="hsl(0 0% 100% / 0.08)"/><rect x="720" y="307" width="169" height="2" rx="1" fill="hsl(0 0% 100% / 0.21)"/><rect x="400" y="370" width="68" height="2" rx="1" fill="hsl(0 0% 100% / 0.22)"/><rect x="308" y="394" width="71" height="2" rx="1" fill="hsl(0 0% 100% / 0.12)"/><rect x="374" y="329" width="164" height="2" rx="1" fill="hsl(0 0% 100% / 0.21)"/><rect x="717" y="357" width="75" height="2" rx="1" fill="hsl(0 0% 100% / 0.07)"/><rect x="537" y="425" width="148" height="2" rx="1" fill="hsl(0 0% 100% / 0.07)"/><rect x="255" y="378" width="157" height="2" rx="1" fill="hsl(0 0% 100% / 0.20)"/><rect x="355" y="363" width="159" height="2" rx="1" fill="hsl(0 0% 100% / 0.15)"/><rect x="386" y="465" width="184" height="2" rx="1" fill="hsl(0 0% 100% / 0.08)"/><rect x="302" y="432" width="153" height="2" rx="1" fill="hsl(0 0% 100% / 0.21)"/><rect x="577" y="399" width="152" height="2" rx="1" fill="hsl(0 0% 100% / 0.19)"/><rect x="461" y="541" width="217" height="2" rx="1" fill="hsl(0 0% 100% / 0.16)"/><path d="M200 456 L170 308 L120 256" stroke="hsl(202 26% 84% / .75)" stroke-width="11" fill="none" stroke-linejoin="round"/><path d="M630 456 L670 322 L750 264" stroke="hsl(30 30% 84% / .7)" stroke-width="13" fill="none" stroke-linejoin="round"/><ellipse cx="750" cy="264" rx="34" ry="10" fill="hsl(28 40% 90% / .5)"/><path d="M0 470 L960 462 L960 600 L0 600 Z" fill="hsl(38 16% 80%)"/><rect x="0" y="460" width="960" height="12" fill="hsl(38 14% 88%)"/><circle cx="22" cy="488" r="4.2" fill="hsl(38 18% 70% / .45)"/><circle cx="443" cy="507" r="3.6" fill="hsl(38 18% 70% / .45)"/><circle cx="791" cy="597" r="5.9" fill="hsl(38 18% 70% / .45)"/><circle cx="761" cy="588" r="3.6" fill="hsl(38 18% 70% / .45)"/><circle cx="686" cy="516" r="2.1" fill="hsl(38 18% 70% / .45)"/><circle cx="789" cy="552" r="3.7" fill="hsl(38 18% 70% / .45)"/><circle cx="57" cy="506" r="5.9" fill="hsl(38 18% 70% / .45)"/><circle cx="141" cy="556" r="2.4" fill="hsl(38 18% 70% / .45)"/><circle cx="713" cy="562" r="3.1" fill="hsl(38 18% 70% / .45)"/><circle cx="783" cy="547" r="3.8" fill="hsl(38 18% 70% / .45)"/><circle cx="769" cy="557" r="5.1" fill="hsl(38 18% 70% / .45)"/><circle cx="821" cy="581" r="2.7" fill="hsl(38 18% 70% / .45)"/><circle cx="637" cy="533" r="2.9" fill="hsl(38 18% 70% / .45)"/><circle cx="404" cy="491" r="4.3" fill="hsl(38 18% 70% / .45)"/><circle cx="841" cy="596" r="2.3" fill="hsl(38 18% 70% / .45)"/><circle cx="153" cy="575" r="5.0" fill="hsl(38 18% 70% / .45)"/><circle cx="601" cy="505" r="5.5" fill="hsl(38 18% 70% / .45)"/><circle cx="213" cy="595" r="4.1" fill="hsl(38 18% 70% / .45)"/><rect x="587" y="549" width="61" height="12" rx="3" fill="hsl(38 14% 72% / .55)"/><rect x="50" y="560" width="47" height="12" rx="3" fill="hsl(38 14% 72% / .55)"/><rect x="277" y="507" width="35" height="12" rx="3" fill="hsl(38 14% 72% / .55)"/><rect x="303" y="503" width="62" height="12" rx="3" fill="hsl(38 14% 72% / .55)"/><rect x="692" y="551" width="68" height="12" rx="3" fill="hsl(38 14% 72% / .55)"/><rect x="791" y="560" width="48" height="12" rx="3" fill="hsl(38 14% 72% / .55)"/><rect x="153" y="516" width="56" height="12" rx="3" fill="hsl(38 14% 72% / .55)"/><rect x="90" y="290" width="108" height="180" rx="4" fill="hsl(200 14% 95%)" stroke="hsl(200 14% 72%)"/><rect x="90" y="290" width="108" height="10" rx="3" fill="hsl(200 16% 84%)"/><rect x="100" y="446" width="88" height="13" rx="6.5" fill="hsl(200 18% 84%)" stroke="hsl(200 14% 74%)" stroke-width=".8"/><rect x="100" y="422" width="88" height="13" rx="6.5" fill="hsl(200 18% 84%)" stroke="hsl(200 14% 74%)" stroke-width=".8"/><rect x="100" y="398" width="88" height="13" rx="6.5" fill="hsl(200 18% 84%)" stroke="hsl(200 14% 74%)" stroke-width=".8"/><rect x="100" y="374" width="88" height="13" rx="6.5" fill="hsl(200 18% 84%)" stroke="hsl(200 14% 74%)" stroke-width=".8"/><rect x="100" y="350" width="88" height="13" rx="6.5" fill="hsl(200 18% 84%)" stroke="hsl(200 14% 74%)" stroke-width=".8"/><rect x="100" y="326" width="88" height="13" rx="6.5" fill="hsl(200 18% 84%)" stroke="hsl(200 14% 74%)" stroke-width=".8"/><rect x="236" y="260" width="126" height="210" rx="4" fill="hsl(200 14% 95%)" stroke="hsl(200 14% 72%)"/><rect x="236" y="260" width="126" height="10" rx="3" fill="hsl(200 16% 84%)"/><rect x="246" y="446" width="106" height="13" rx="6.5" fill="hsl(200 18% 84%)" stroke="hsl(200 14% 74%)" stroke-width=".8"/><rect x="246" y="422" width="106" height="13" rx="6.5" fill="hsl(200 18% 84%)" stroke="hsl(200 14% 74%)" stroke-width=".8"/><rect x="246" y="398" width="106" height="13" rx="6.5" fill="hsl(200 18% 84%)" stroke="hsl(200 14% 74%)" stroke-width=".8"/><rect x="246" y="374" width="106" height="13" rx="6.5" fill="hsl(200 18% 84%)" stroke="hsl(200 14% 74%)" stroke-width=".8"/><rect x="246" y="350" width="106" height="13" rx="6.5" fill="hsl(200 18% 84%)" stroke="hsl(200 14% 74%)" stroke-width=".8"/><rect x="246" y="326" width="106" height="13" rx="6.5" fill="hsl(200 18% 84%)" stroke="hsl(200 14% 74%)" stroke-width=".8"/><rect x="246" y="302" width="106" height="13" rx="6.5" fill="hsl(200 18% 84%)" stroke="hsl(200 14% 74%)" stroke-width=".8"/><rect x="402" y="269" width="117" height="201" rx="4" fill="hsl(200 14% 95%)" stroke="hsl(200 14% 72%)"/><rect x="402" y="269" width="117" height="10" rx="3" fill="hsl(200 16% 84%)"/><rect x="412" y="446" width="97" height="13" rx="6.5" fill="hsl(200 18% 84%)" stroke="hsl(200 14% 74%)" stroke-width=".8"/><rect x="412" y="422" width="97" height="13" rx="6.5" fill="hsl(200 18% 84%)" stroke="hsl(200 14% 74%)" stroke-width=".8"/><rect x="412" y="398" width="97" height="13" rx="6.5" fill="hsl(200 18% 84%)" stroke="hsl(200 14% 74%)" stroke-width=".8"/><rect x="412" y="374" width="97" height="13" rx="6.5" fill="hsl(200 18% 84%)" stroke="hsl(200 14% 74%)" stroke-width=".8"/><rect x="412" y="350" width="97" height="13" rx="6.5" fill="hsl(200 18% 84%)" stroke="hsl(200 14% 74%)" stroke-width=".8"/><rect x="412" y="326" width="97" height="13" rx="6.5" fill="hsl(200 18% 84%)" stroke="hsl(200 14% 74%)" stroke-width=".8"/><rect x="412" y="302" width="97" height="13" rx="6.5" fill="hsl(200 18% 84%)" stroke="hsl(200 14% 74%)" stroke-width=".8"/><rect x="528" y="260" width="122" height="210" rx="4" fill="hsl(200 14% 95%)" stroke="hsl(200 14% 72%)"/><rect x="528" y="260" width="122" height="10" rx="3" fill="hsl(200 16% 84%)"/><rect x="538" y="446" width="102" height="13" rx="6.5" fill="hsl(200 18% 84%)" stroke="hsl(200 14% 74%)" stroke-width=".8"/><rect x="538" y="422" width="102" height="13" rx="6.5" fill="hsl(200 18% 84%)" stroke="hsl(200 14% 74%)" stroke-width=".8"/><rect x="538" y="398" width="102" height="13" rx="6.5" fill="hsl(200 18% 84%)" stroke="hsl(200 14% 74%)" stroke-width=".8"/><rect x="538" y="374" width="102" height="13" rx="6.5" fill="hsl(200 18% 84%)" stroke="hsl(200 14% 74%)" stroke-width=".8"/><rect x="538" y="350" width="102" height="13" rx="6.5" fill="hsl(200 18% 84%)" stroke="hsl(200 14% 74%)" stroke-width=".8"/><rect x="538" y="326" width="102" height="13" rx="6.5" fill="hsl(200 18% 84%)" stroke="hsl(200 14% 74%)" stroke-width=".8"/><rect x="538" y="302" width="102" height="13" rx="6.5" fill="hsl(200 18% 84%)" stroke="hsl(200 14% 74%)" stroke-width=".8"/><rect x="70" y="454" width="480" height="7" rx="3.5" fill="hsl(200 18% 74%)"/><rect x="710" y="230" width="120" height="240" rx="16" fill="hsl(200 16% 96%)" stroke="hsl(200 14% 74%)"/><rect x="710" y="244" width="120" height="226" fill="hsl(190 70% 62%)" clip-path="url(#tk)"/><rect x="710" y="244" width="120" height="3" fill="hsl(190 80% 86%)" clip-path="url(#tk)"/><rect x="702" y="218" width="136" height="14" rx="5" fill="hsl(200 14% 86%)"/><rect x="864" y="220" width="26" height="250" fill="hsl(200 12% 90%)"/><rect x="864" y="220" width="26" height="16" fill="hsl(14 46% 64%)"/></svg>