<svg xmlns="http://www.w3.org/2000/svg" viewBox="0 0 960 600" width="960" height="600" role="img" aria-label="Lake Mead, drawn from its published figures"><title>Lake Mead</title><defs><linearGradient id="sky" x1="0" y1="0" x2="0" y2="1">
      <stop offset="0" stop-color="hsl(209 56% 84%)"/><stop offset="1" stop-color="hsl(201 26% 96%)"/></linearGradient><radialGradient id="sun"><stop offset="0" stop-color="hsl(44 96% 78%)" stop-opacity=".85"/>
          <stop offset="1" stop-color="hsl(44 96% 78%)" stop-opacity="0"/></radialGradient><linearGradient id="lake" x1="0" y1="0" x2="0" y2="1">
      <stop offset="0" stop-color="hsl(197 46% 70%)"/><stop offset="1" stop-color="hsl(205 56% 48%)"/></linearGradient><linearGradient id="wall" x1="0" y1="0" x2="1" y2="0">
      <stop offset="0" stop-color="hsl(40 8% 70%)"/><stop offset=".38" stop-color="hsl(40 10% 93%)"/>
      <stop offset="1" stop-color="hsl(40 8% 66%)"/></linearGradient><linearGradient id="riv" x1="0" y1="0" x2="0" y2="1">
      <stop offset="0" stop-color="hsl(203 40% 58%)"/><stop offset="1" stop-color="hsl(209 48% 36%)"/></linearGradient></defs><rect width="960" height="600" fill="url(#sky)"/><circle cx="134.5500233462684" cy="100.39510571085644" r="200" fill="url(#sun)"/><ellipse cx="72" cy="116" rx="88" ry="16" fill="hsl(0 0% 100% / .5)"/><ellipse cx="572" cy="73" rx="138" ry="27" fill="hsl(0 0% 100% / .5)"/><ellipse cx="714" cy="93" rx="82" ry="16" fill="hsl(0 0% 100% / .5)"/><ellipse cx="852" cy="92" rx="117" ry="19" fill="hsl(0 0% 100% / .5)"/><path d="M0 600 L0.0 222.2 Q60.0 214.7 120.0 264.5 Q180.0 247.3 240.0 254.8 Q300.0 243.7 360.0 251.2 Q420.0 198.6 480.0 206.1 Q540.0 198.6 600.0 259.9 Q660.0 236.6 720.0 244.1 Q780.0 236.6 840.0 248.2 Q900.0 226.9 960.0 234.4 L960 600 Z" fill="hsl(213 20% 62%)" opacity=".5"/><path d="M0 600 L0.0 268.3 Q48.0 262.8 96.0 287.4 Q144.0 249.2 192.0 254.7 Q240.0 249.2 288.0 288.5 Q336.0 245.6 384.0 251.1 Q432.0 245.6 480.0 253.9 Q528.0 248.4 576.0 285.0 Q624.0 258.0 672.0 263.5 Q720.0 258.0 768.0 269.5 Q816.0 259.2 864.0 264.7 Q912.0 244.9 960.0 250.4 L960 600 Z" fill="hsl(217 18% 50%)" opacity=".6"/><path d="M40 318 L920 318 L810 289 L150 289 Z" fill="url(#lake)"/><rect x="155" y="293" width="179" height="1.6" fill="hsl(0 0% 100% / 0.25)"/><rect x="181" y="297" width="94" height="1.6" fill="hsl(0 0% 100% / 0.20)"/><rect x="142" y="301" width="162" height="1.6" fill="hsl(0 0% 100% / 0.28)"/><rect x="147" y="306" width="60" height="1.6" fill="hsl(0 0% 100% / 0.26)"/><rect x="127" y="310" width="129" height="1.6" fill="hsl(0 0% 100% / 0.24)"/><rect x="102" y="314" width="46" height="1.6" fill="hsl(0 0% 100% / 0.20)"/><path d="M0 248 L191 308 L153 600 L0 600 Z" fill="hsl(26 16% 46%)"/><path d="M960 238 L793 308 L827 600 L960 600 Z" fill="hsl(26 14% 36%)"/><path d="M179 312 L164 366 L38 600 L57 385 Z" fill="hsl(36 40% 78% / .5)"/><path d="M803 312 L817 366 L927 600 L910 385 Z" fill="hsl(36 40% 78% / .45)"/><path d="M177 318 Q480 340 807 318 L781 486 Q480 516 203 486 Z" fill="url(#wall)"/><line x1="240" y1="326" x2="261" y2="486" stroke="hsl(40 6% 58% / .38)" stroke-width="1.4"/><line x1="303" y1="326" x2="318" y2="486" stroke="hsl(40 6% 58% / .38)" stroke-width="1.4"/><line x1="366" y1="326" x2="376" y2="486" stroke="hsl(40 6% 58% / .38)" stroke-width="1.4"/><line x1="429" y1="326" x2="434" y2="486" stroke="hsl(40 6% 58% / .38)" stroke-width="1.4"/><line x1="492" y1="326" x2="492" y2="486" stroke="hsl(40 6% 58% / .38)" stroke-width="1.4"/><line x1="555" y1="326" x2="550" y2="486" stroke="hsl(40 6% 58% / .38)" stroke-width="1.4"/><line x1="618" y1="326" x2="608" y2="486" stroke="hsl(40 6% 58% / .38)" stroke-width="1.4"/><line x1="681" y1="326" x2="665" y2="486" stroke="hsl(40 6% 58% / .38)" stroke-width="1.4"/><line x1="744" y1="326" x2="723" y2="486" stroke="hsl(40 6% 58% / .38)" stroke-width="1.4"/><path d="M186 375 Q480 397 798 375" stroke="hsl(40 6% 60% / .3)" stroke-width="2" fill="none"/><path d="M193 422 Q480 444 791 422" stroke="hsl(40 6% 60% / .3)" stroke-width="2" fill="none"/><path d="M171 318 Q480 340 813 318 L813 308 Q480 330 171 308 Z" fill="hsl(40 8% 97%)"/><rect x="247" y="302" width="2" height="12" fill="hsl(40 6% 74%)"/><rect x="317" y="307" width="2" height="12" fill="hsl(40 6% 74%)"/><rect x="387" y="310" width="2" height="12" fill="hsl(40 6% 74%)"/><rect x="457" y="312" width="2" height="12" fill="hsl(40 6% 74%)"/><rect x="527" y="312" width="2" height="12" fill="hsl(40 6% 74%)"/><rect x="597" y="310" width="2" height="12" fill="hsl(40 6% 74%)"/><rect x="667" y="307" width="2" height="12" fill="hsl(40 6% 74%)"/><rect x="737" y="302" width="2" height="12" fill="hsl(40 6% 74%)"/><path d="M462 324 q9 84 5 162 l49 0 q6 -84 -4 -162 Z" fill="hsl(190 34% 99% / .92)"/><ellipse cx="487" cy="500" rx="83" ry="18" fill="hsl(190 30% 100% / .7)"/><circle cx="460" cy="516" r="6" fill="hsl(190 26% 100% / 0.27)"/><circle cx="428" cy="515" r="13" fill="hsl(190 26% 100% / 0.25)"/><circle cx="554" cy="509" r="8" fill="hsl(190 26% 100% / 0.37)"/><circle cx="499" cy="505" r="9" fill="hsl(190 26% 100% / 0.59)"/><circle cx="459" cy="506" r="12" fill="hsl(190 26% 100% / 0.29)"/><circle cx="459" cy="495" r="7" fill="hsl(190 26% 100% / 0.39)"/><path d="M105 600 L207 486 L777 486 L868 600 Z" fill="url(#riv)"/><rect x="221" y="498" width="141" height="2" rx="1" fill="hsl(0 0% 100% / 0.14)"/><rect x="224" y="510" width="133" height="2" rx="1" fill="hsl(0 0% 100% / 0.29)"/><rect x="294" y="522" width="50" height="2" rx="1" fill="hsl(0 0% 100% / 0.24)"/><rect x="288" y="534" width="69" height="2" rx="1" fill="hsl(0 0% 100% / 0.20)"/><rect x="231" y="546" width="89" height="2" rx="1" fill="hsl(0 0% 100% / 0.22)"/><rect x="208" y="558" width="103" height="2" rx="1" fill="hsl(0 0% 100% / 0.13)"/><rect x="174" y="570" width="75" height="2" rx="1" fill="hsl(0 0% 100% / 0.19)"/><rect x="139" y="582" width="51" height="2" rx="1" fill="hsl(0 0% 100% / 0.26)"/><rect x="167" y="594" width="114" height="2" rx="1" fill="hsl(0 0% 100% / 0.23)"/></svg>